<svg width="34" height="31" viewBox="0 0 34 31" fill="none" xmlns="http://www.w3.org/2000/svg">
<path d="M29.6707 23.699C29.6569 24.1427 29.5451 24.5793 29.3418 24.983C29.1386 25.3867 28.848 25.7492 28.4874 26.049C28.1268 26.3489 27.7035 26.5799 27.2427 26.7283C26.7818 26.8768 26.2928 26.9398 25.8046 26.9134C22.7545 26.9288 19.703 26.9134 16.6529 26.9134C16.4651 26.9134 16.2849 26.8457 16.152 26.7251C16.0192 26.6045 15.9446 26.441 15.9446 26.2705C15.9446 26.1 16.0192 25.9365 16.152 25.8159C16.2849 25.6954 16.4651 25.6277 16.6529 25.6277C19.7696 25.6277 22.8862 25.6688 26.0029 25.6277C27.5712 25.6071 28.254 24.5373 28.254 23.2644V7.23881C28.2647 6.83417 28.139 6.4362 27.8937 6.09819C27.6484 5.76018 27.2951 5.49825 26.8812 5.34746C26.3921 5.22643 25.8832 5.18507 25.3782 5.22532H16.6529C16.4651 5.22532 16.2849 5.15759 16.152 5.03702C16.0192 4.91646 15.9446 4.75294 15.9446 4.58244C15.9446 4.41194 16.0192 4.24842 16.152 4.12786C16.2849 4.0073 16.4651 3.93956 16.6529 3.93956C19.805 3.93956 22.9783 3.83028 26.1276 3.93956C26.6097 3.95046 27.0846 4.04831 27.5246 4.22741C27.9647 4.40652 28.361 4.6633 28.6907 4.9828C29.0203 5.3023 29.2765 5.67813 29.4446 6.08841C29.6126 6.49868 29.6889 6.9352 29.6692 7.37253L29.6707 23.699Z" fill="black"/>
<path d="M22.3748 15.8842C22.4944 15.7782 22.5644 15.6346 22.5703 15.483C22.5746 15.4652 22.5774 15.4472 22.5788 15.429C22.5774 15.4113 22.5746 15.3937 22.5703 15.3763C22.5653 15.2242 22.4952 15.0798 22.3748 14.9739L17.1771 10.2577C17.0435 10.1406 16.8646 10.0758 16.6789 10.0773C16.4931 10.0788 16.3155 10.1464 16.1841 10.2656C16.0528 10.3848 15.9783 10.546 15.9767 10.7146C15.9751 10.8831 16.0465 11.0455 16.1755 11.1668L20.1648 14.7862H4.94701C4.75915 14.7862 4.57898 14.8539 4.44614 14.9745C4.31331 15.095 4.23868 15.2585 4.23868 15.429C4.23868 15.5995 4.31331 15.7631 4.44614 15.8836C4.57898 16.0042 4.75915 16.0719 4.94701 16.0719H20.1648L16.1755 19.6913C16.0465 19.8126 15.9751 19.9749 15.9767 20.1435C15.9783 20.3121 16.0528 20.4733 16.1841 20.5925C16.3155 20.7117 16.4931 20.7793 16.6789 20.7808C16.8646 20.7822 17.0435 20.7174 17.1771 20.6003L22.3748 15.8842Z" fill="black"/>
</svg>
