<svg width="5" height="9" viewBox="0 0 5 9" fill="none" xmlns="http://www.w3.org/2000/svg">
<path d="M0.17321 8.82213C0.0577367 8.70356 0 8.56316 0 8.40095C0 8.23905 0.0577367 8.09881 0.17321 7.98024L3.55658 4.50593L0.161663 1.01976C0.0538876 0.909091 0 0.770751 0 0.604743C0 0.438735 0.0577367 0.296443 0.17321 0.177866C0.288684 0.0592885 0.425404 0 0.583372 0C0.741032 0 0.877598 0.0592885 0.993072 0.177866L4.87298 4.17391C4.91917 4.22134 4.95196 4.27273 4.97136 4.32806C4.99045 4.3834 5 4.44269 5 4.50593C5 4.56917 4.99045 4.62846 4.97136 4.68379C4.95196 4.73913 4.91917 4.79051 4.87298 4.83794L0.981524 8.83399C0.873749 8.94466 0.741032 9 0.583372 9C0.425404 9 0.288684 8.94071 0.17321 8.82213Z" fill="#DBDBDB" fill-opacity="0.8"/>
</svg>
